<svg width="72" height="16" viewBox="0 0 72 16" fill="none" xmlns="http://www.w3.org/2000/svg">
<path d="M0.711204 15L3.12598 0.454545H12.6856L12.295 2.75568H5.49814L4.87314 6.5696H11.1729L10.7893 8.87074H4.48251L3.85751 12.6989H10.7041L10.3135 15H0.711204ZM19.8248 8.58239L19.5052 10.5575H13.5926L13.9122 8.58239H19.8248ZM30.9317 4.56676C30.9507 3.92756 30.7565 3.4375 30.3493 3.09659C29.9469 2.75568 29.3598 2.58523 28.588 2.58523C28.0529 2.58523 27.5818 2.66335 27.1746 2.8196C26.7722 2.97585 26.4478 3.19129 26.2016 3.46591C25.9554 3.7358 25.8039 4.0483 25.7471 4.40341C25.695 4.69223 25.7187 4.94318 25.8181 5.15625C25.9175 5.36932 26.0714 5.55161 26.2797 5.70312C26.4881 5.85464 26.7296 5.98248 27.0042 6.08665C27.2788 6.19081 27.5605 6.27841 27.8493 6.34943L29.142 6.68324C29.6912 6.81581 30.2026 6.99337 30.676 7.21591C31.1543 7.43371 31.5662 7.7107 31.9118 8.04688C32.2575 8.38305 32.5061 8.78551 32.6576 9.25426C32.8138 9.72301 32.8399 10.2699 32.7357 10.8949C32.5889 11.7614 32.2433 12.5189 31.6988 13.1676C31.1543 13.8116 30.4393 14.3158 29.5539 14.6804C28.6685 15.0402 27.641 15.2202 26.4715 15.2202C25.3304 15.2202 24.3669 15.0426 23.5809 14.6875C22.7949 14.3324 22.222 13.8139 21.8621 13.1321C21.5023 12.4503 21.3886 11.6146 21.5212 10.625H24.2201C24.168 11.1269 24.2485 11.5459 24.4616 11.8821C24.6746 12.2135 24.9871 12.4621 25.3991 12.6278C25.811 12.7936 26.2892 12.8764 26.8337 12.8764C27.3924 12.8764 27.8943 12.7936 28.3394 12.6278C28.7892 12.4574 29.1562 12.223 29.4403 11.9247C29.7291 11.6264 29.9043 11.2784 29.9658 10.8807C30.0274 10.5161 29.9729 10.2131 29.8025 9.97159C29.6367 9.73011 29.3716 9.52652 29.007 9.3608C28.6472 9.19508 28.2163 9.0483 27.7144 8.92045L26.1519 8.50142C25.0013 8.19366 24.1278 7.72727 23.5312 7.10227C22.9393 6.47254 22.7286 5.62973 22.8991 4.57386C23.0458 3.71212 23.4057 2.95691 23.9786 2.30824C24.5563 1.65956 25.2807 1.1553 26.1519 0.795454C27.0231 0.435605 27.9748 0.255681 29.007 0.255681C30.0534 0.255681 30.9388 0.437973 31.6633 0.802556C32.3877 1.1624 32.918 1.66667 33.2542 2.31534C33.5903 2.96402 33.6992 3.71449 33.5809 4.56676H30.9317ZM37.566 9.26634L36.6135 15H34.1846L36.3579 1.90909H38.7293L37.9111 6.86932H38.0326C38.3437 6.30256 38.7698 5.85937 39.311 5.53977C39.8522 5.21591 40.502 5.05398 41.2606 5.05398C41.9381 5.05398 42.5049 5.19886 42.9608 5.48864C43.4211 5.77415 43.7449 6.19389 43.9324 6.74787C44.1242 7.29758 44.1562 7.96449 44.0283 8.74858L42.98 15H40.551L41.529 9.14489C41.6313 8.49716 41.5461 7.99432 41.2733 7.63636C41.0049 7.27841 40.5766 7.09943 39.9885 7.09943C39.588 7.09943 39.2172 7.18466 38.8763 7.35511C38.5397 7.52557 38.2563 7.77273 38.0262 8.09659C37.7961 8.42045 37.6427 8.81037 37.566 9.26634ZM49.6166 15.1918C48.6407 15.1918 47.8289 14.9787 47.1812 14.5526C46.5377 14.1264 46.0839 13.5298 45.8197 12.7628C45.5597 11.9915 45.5129 11.0945 45.6791 10.0717C45.841 9.06605 46.1734 8.18821 46.6762 7.43821C47.1833 6.68395 47.8225 6.09801 48.5938 5.6804C49.3651 5.26278 50.2302 5.05398 51.189 5.05398C52.1649 5.05398 52.9745 5.26918 53.618 5.69957C54.2657 6.12571 54.7217 6.72443 54.9859 7.49574C55.2501 8.26705 55.2991 9.16406 55.1329 10.1868C54.9667 11.1882 54.6301 12.0639 54.123 12.8139C53.6159 13.5639 52.9767 14.1477 52.2053 14.5653C51.4383 14.983 50.5754 15.1918 49.6166 15.1918ZM49.8275 13.2678C50.3431 13.2678 50.797 13.1271 51.189 12.8459C51.5811 12.5604 51.9049 12.1747 52.1606 11.6889C52.4163 11.2031 52.5931 10.6619 52.6911 10.0653C52.7892 9.48153 52.7934 8.95526 52.7039 8.48651C52.6144 8.01776 52.4291 7.64702 52.1478 7.37429C51.8666 7.0973 51.4767 6.95881 50.9781 6.95881C50.4624 6.95881 50.0065 7.10156 49.6102 7.38707C49.2139 7.67258 48.89 8.05824 48.6386 8.54403C48.3872 9.02983 48.2124 9.57315 48.1144 10.174C48.0207 10.7536 48.0164 11.2777 48.1017 11.7464C48.1869 12.2152 48.3701 12.5859 48.6514 12.8587C48.9369 13.1314 49.3289 13.2678 49.8275 13.2678ZM57.9758 15L56.8635 5.18182H59.3373L59.8678 12.0021H59.9573L62.8018 5.18182H65.2435L65.8252 11.9638H65.9211L68.7016 5.18182H71.1689L66.7904 15H64.2464L63.5241 8.4929H63.3962L60.5198 15H57.9758Z" fill="#0085FF"/>
</svg>
